<?xml version="1.0" encoding="UTF-8"?>
<svg version="1.1" xmlns="http://www.w3.org/2000/svg" width="208" height="86">
<path d="M0 0 C1.32 0.66 2.64 1.32 4 2 C3.83790039 2.57057129 3.67580078 3.14114258 3.50878906 3.72900391 C2.99815448 6.00823754 2.87466941 8.00455896 2.859375 10.3359375 C2.84003906 11.15320312 2.82070312 11.97046875 2.80078125 12.8125 C2.76708658 14.5127847 2.74871008 16.21344598 2.74609375 17.9140625 C2.56440158 23.99596887 1.42688569 26.77433639 -3 31 C-7.19145019 33.09572509 -12.44729504 32.55772151 -17 32 C-19.56555349 30.58815537 -20.33419759 29.49870361 -22 27 C-22 26.34 -22 25.68 -22 25 C-23.7290774 24.97274659 -25.45828176 24.95349013 -27.1875 24.9375 C-28.15042969 24.92589844 -29.11335938 24.91429688 -30.10546875 24.90234375 C-32.97664816 24.91211792 -32.97664816 24.91211792 -35.62890625 25.57421875 C-39.42845553 26.25651014 -41.74143094 24.87994369 -45 23 C-46.38339174 19.90771258 -46.19664591 18.55060856 -45.0625 15.375 C-44.711875 14.59125 -44.36125 13.8075 -44 13 C-43.84188612 9.94729537 -43.84188612 9.94729537 -45 7 C-42.73247951 3.97663935 -41.42295606 2.24026963 -37.6171875 1.59765625 C-33.15912505 1.53777183 -28.8720931 1.57994181 -25 4 C-22.86567035 7.31665615 -22.6285114 10.36282514 -22.375 14.25 C-22.30023438 15.32765625 -22.22546875 16.4053125 -22.1484375 17.515625 C-22.07496094 18.74539062 -22.07496094 18.74539062 -22 20 C-21.67 20 -21.34 20 -21 20 C-21.33 19.34 -21.66 18.68 -22 18 C-22.41249869 14.28751175 -22.50351885 10.70524198 -22 7 C-19.625 4.3125 -19.625 4.3125 -17 3 C-16.34 3 -15.68 3 -15 3 C-14.67 2.34 -14.34 1.68 -14 1 C-13.24074219 1.09539063 -12.48148438 1.19078125 -11.69921875 1.2890625 C-10.20841797 1.45535156 -10.20841797 1.45535156 -8.6875 1.625 C-7.70136719 1.74101562 -6.71523437 1.85703125 -5.69921875 1.9765625 C-2.77342584 2.25476995 -2.77342584 2.25476995 0 0 Z M-39 9 C-39 9.33 -39 9.66 -39 10 C-37.02 10 -35.04 10 -33 10 C-33.33 9.01 -33.66 8.02 -34 7 C-35.84046388 7 -37.39629594 8.17228177 -39 9 Z M-12 8 C-13.35439668 10.70879335 -13.06501451 13.00933268 -13 16 C-11.34385343 16.38218767 -9.67542976 16.71395102 -8 17 C-6.58422523 15.81575674 -6.58422523 15.81575674 -6.9375 12.4375 C-6.958125 11.303125 -6.97875 10.16875 -7 9 C-8.65 8.67 -10.3 8.34 -12 8 Z M-34 14 C-34 14.66 -34 15.32 -34 16 C-34.99 16.33 -35.98 16.66 -37 17 C-36.67 17.99 -36.34 18.98 -36 20 C-35.01 19.67 -34.02 19.34 -33 19 C-33 17.35 -33 15.7 -33 14 C-33.33 14 -33.66 14 -34 14 Z M-17 23 C-14.32958675 26.33477709 -14.32958675 26.33477709 -10.8125 26.1875 C-9.884375 26.125625 -8.95625 26.06375 -8 26 C-7.67 25.01 -7.34 24.02 -7 23 C-10.3 23 -13.6 23 -17 23 Z " fill="#F9F9F9" transform="translate(169,28)"/>
<path d="M0 0 C2.45650135 1.42506975 3.99181597 2.94032407 6 5 C6.33 4.34 6.66 3.68 7 3 C11.45981088 1.02938589 14.28499429 1.03556701 19 2 C19.66 1.67 20.32 1.34 21 1 C23.8125 0.625 23.8125 0.625 27 1 C29.8125 3.4375 29.8125 3.4375 32 6 C32.495 6.495 32.495 6.495 33 7 C33.45383535 11.22415984 33.4427574 14.92806104 31.8125 18.875 C29.68705115 21.36690555 28.00168666 22.67367334 25 24 C21.6875 24.1875 21.6875 24.1875 19 24 C19.495 26.97 19.495 26.97 20 30 C16.90521121 31.03159626 15.47368607 30.97482862 12.3125 30.5625 C11.50425781 30.46066406 10.69601563 30.35882813 9.86328125 30.25390625 C9.24839844 30.17011719 8.63351563 30.08632813 8 30 C8 27.12693191 8.06394305 24.31705356 8.21875 21.453125 C8.26386719 20.60878906 8.30898438 19.76445313 8.35546875 18.89453125 C8.42701172 17.58548828 8.42701172 17.58548828 8.5 16.25 C8.54769531 15.36183594 8.59539063 14.47367188 8.64453125 13.55859375 C8.76207162 11.37234282 8.8805938 9.18614969 9 7 C8.67 7.33 8.34 7.66 8 8 C8.03248155 9.37603641 8.10135139 10.7512789 8.1875 12.125 C8.25272155 17.23673908 6.95508511 19.86288085 4 24 C-0.45471292 26.96980861 -4.77810319 26.74926191 -10 26 C-13.76124734 23.31339476 -15.94938554 20.51764219 -17 16 C-16.98986133 11.02191067 -16.1271549 7.00275827 -13 3 C-12.34 3 -11.68 3 -11 3 C-11 2.34 -11 1.68 -11 1 C-7.52011442 -0.73994279 -3.7956593 -0.5976415 0 0 Z M-2 7 C-1 9 -1 9 -1 9 Z M19 8 C17.84162374 12.05431692 18.16308743 14.21812119 20 18 C20.99 17.67 21.98 17.34 23 17 C24.04214691 12.38492226 24.04214691 12.38492226 23 8 C21.68 8 20.36 8 19 8 Z M-6 14 C-5 16 -5 16 -5 16 Z M-7 16 C-6 18 -6 18 -6 18 Z " fill="#F9F9F9" transform="translate(53,28)"/>
<path d="M0 0 C1 1 1 1 1.0625 3.43359375 C1.02088749 5.43359488 0.97922097 7.43359488 0.9375 9.43359375 C0.81772784 11.98987685 0.81772784 11.98987685 2 14 C2.309375 13.030625 2.61875 12.06125 2.9375 11.0625 C4 8 4 8 5 7 C6.51928038 6.92820036 8.04167482 6.91607993 9.5625 6.9375 C10.38878906 6.94652344 11.21507813 6.95554687 12.06640625 6.96484375 C12.70449219 6.97644531 13.34257813 6.98804688 14 7 C14.58203125 8.890625 14.58203125 8.890625 15 11 C13.6875 12.75 13.6875 12.75 12 14 C11.34 14 10.68 14 10 14 C9.18134157 16.27303361 9.18134157 16.27303361 9 19 C10.39534806 21.40420998 10.39534806 21.40420998 12.4375 23.5625 C16 27.5851272 16 27.5851272 16 32 C15 33 15 33 11.75 33.375 C7.1307143 32.91307143 5.89072984 31.50391496 3 28 C3 28.99 3 29.98 3 31 C1 33 1 33 -1.3828125 33.1953125 C-2.74019531 33.16050781 -2.74019531 33.16050781 -4.125 33.125 C-5.03507812 33.10695312 -5.94515625 33.08890625 -6.8828125 33.0703125 C-7.58148438 33.04710937 -8.28015625 33.02390625 -9 33 C-9.66 31.68 -10.32 30.36 -11 29 C-10.67 28.67 -10.34 28.34 -10 28 C-9.91290288 26.41221006 -9.89299754 24.82061825 -9.90234375 23.23046875 C-9.90556641 22.25916016 -9.90878906 21.28785156 -9.91210938 20.28710938 C-9.92048828 19.26423828 -9.92886719 18.24136719 -9.9375 17.1875 C-9.94201172 16.17623047 -9.94652344 15.16496094 -9.95117188 14.12304688 C-9.95990887 12.23460739 -9.97069202 10.34617555 -9.98413086 8.45776367 C-9.99802931 6.30521415 -10 4.15259439 -10 2 C-6.50971852 0.40444275 -3.84597567 -0.32049797 0 0 Z " fill="#FBFBFB" transform="translate(22,22)"/>
<path d="M0 0 C4.10610752 1.06192436 5.82626596 1.7500529 8.625 4.9375 C9.90458916 8.21098714 10.82242072 11.51838177 11.625 14.9375 C10.635 14.9375 9.645 14.9375 8.625 14.9375 C8.582279 16.60361905 8.58436168 18.27132885 8.625 19.9375 C8.955 20.2675 9.285 20.5975 9.625 20.9375 C9.75778578 22.46257546 9.82829065 23.99319075 9.87109375 25.5234375 C9.90396484 26.45414063 9.93683594 27.38484375 9.97070312 28.34375 C10.03165608 30.31499436 10.08897748 32.28635452 10.14257812 34.2578125 C10.19381836 35.65773438 10.19381836 35.65773438 10.24609375 37.0859375 C10.2711499 37.94364746 10.29620605 38.80135742 10.32202148 39.68505859 C10.49499599 42.21789101 10.49499599 42.21789101 12.625 44.9375 C10.625 46.9375 10.625 46.9375 8.3125 47.16796875 C7.425625 47.15378906 6.53875 47.13960937 5.625 47.125 C4.2946875 47.11533203 4.2946875 47.11533203 2.9375 47.10546875 C0.625 46.9375 0.625 46.9375 -1.375 45.9375 C-1.045 44.9475 -0.715 43.9575 -0.375 42.9375 C-0.30399759 40.28201 -0.28161059 37.65411325 -0.3125 35 C-0.31701172 34.28392578 -0.32152344 33.56785156 -0.32617188 32.83007812 C-0.33891472 30.86585932 -0.35675688 28.90167542 -0.375 26.9375 C-0.375 25.6175 -0.375 24.2975 -0.375 22.9375 C0.285 22.6075 0.945 22.2775 1.625 21.9375 C0.965 20.9475 0.305 19.9575 -0.375 18.9375 C-0.414992 16.93789988 -0.41846799 14.93702758 -0.375 12.9375 C-0.705 12.6075 -1.035 12.2775 -1.375 11.9375 C-1.375 13.2575 -1.375 14.5775 -1.375 15.9375 C-4.375 15.9375 -4.375 15.9375 -6.125 14.75 C-7.375 12.9375 -7.375 12.9375 -7.0625 10.25 C-6.835625 9.486875 -6.60875 8.72375 -6.375 7.9375 C-7.365 7.9375 -8.355 7.9375 -9.375 7.9375 C-4.81927935 -0.08924591 -4.81927935 -0.08924591 0 0 Z M0.625 10.9375 C4.625 11.9375 4.625 11.9375 4.625 11.9375 Z " fill="#F9FAF9" transform="translate(86.375,8.0625)"/>
<path d="M0 0 C3.59712854 1.75691331 5.61541864 4.2475582 7.4375 7.8125 C8.26213021 12.48540451 8.29044768 16.52084118 6.05859375 20.80859375 C3.76141777 23.97005377 2.18394373 24.95877123 -1.625 25.8125 C-2.73875 25.874375 -3.8525 25.93625 -5 26 C-5.99 26.33 -6.98 26.66 -8 27 C-11.81589404 25.29177126 -14.50902111 22.90012797 -16.5 19.25 C-17.25518495 14.34129782 -17.50231711 9.52137137 -14.8828125 5.125 C-10.54044393 -0.21945362 -6.62461252 -0.97977463 0 0 Z M-3 3 C-2 5 -2 5 -2 5 Z M-2 6 C-1 9 -1 9 -1 9 Z M-3 9 C-2 11 -2 11 -2 11 Z M-7 15 C-6 18 -6 18 -6 18 Z M-8 18 C-7 21 -7 21 -7 21 Z M-7 22 C-6 24 -6 24 -6 24 Z " fill="#F9FAF9" transform="translate(189,28)"/>
<path d="M0 0 C1.79244141 0.01740234 1.79244141 0.01740234 3.62109375 0.03515625 C5.41740234 0.04869141 5.41740234 0.04869141 7.25 0.0625 C8.17683594 0.07410156 9.10367188 0.08570312 10.05859375 0.09765625 C10.05859375 4.09765625 10.05859375 4.09765625 9.05859375 6.09765625 C8.95366418 7.63295105 8.90338823 9.17219874 8.8828125 10.7109375 C8.85896484 11.62939453 8.83511719 12.54785156 8.81054688 13.49414062 C8.76784199 15.42621307 8.73644885 17.3585712 8.71679688 19.29101562 C8.58608787 23.64088983 8.50379938 26.36751902 6.203125 30.140625 C3.23582071 32.84849285 1.69503222 34.05136982 -2.37890625 34.34765625 C-7.37745276 33.99688106 -7.37745276 33.99688106 -9.94140625 32.09765625 C-12.03820028 29.40177822 -11.93651446 28.00471225 -11.75390625 24.53515625 C-10.94140625 21.09765625 -10.94140625 21.09765625 -9.69140625 19.09765625 C-7.94140625 18.09765625 -7.94140625 18.09765625 -5.25390625 18.41015625 C-4.49078125 18.63703125 -3.72765625 18.86390625 -2.94140625 19.09765625 C-3.27140625 21.73765625 -3.60140625 24.37765625 -3.94140625 27.09765625 C-3.28140625 26.76765625 -2.62140625 26.43765625 -1.94140625 26.09765625 C-1.88324002 22.68106134 -1.8477543 19.2645942 -1.81640625 15.84765625 C-1.79964844 14.87957031 -1.78289062 13.91148438 -1.765625 12.9140625 C-1.75595703 11.51220703 -1.75595703 11.51220703 -1.74609375 10.08203125 C-1.7303833 8.79377441 -1.7303833 8.79377441 -1.71435547 7.47949219 C-1.95847302 4.91862029 -2.65150113 3.30254596 -3.94140625 1.09765625 C-2.94140625 0.09765625 -2.94140625 0.09765625 0 0 Z " fill="#F9FAFA" transform="translate(113.94140625,25.90234375)"/>
<path d="M0 0 C1.33917261 0.30903983 2.67088318 0.65023242 4 1 C6.33157492 1.34541851 8.66508361 1.67794257 11 2 C12.093125 2.20625 13.18625 2.4125 14.3125 2.625 C16.96459195 3.2537577 16.96459195 3.2537577 19 2 C20.6696807 1.98385116 22.34028286 2.03484222 24.0078125 2.12109375 C24.99394531 2.16943359 25.98007813 2.21777344 26.99609375 2.26757812 C28.54490234 2.35168945 28.54490234 2.35168945 30.125 2.4375 C31.16527344 2.48970703 32.20554688 2.54191406 33.27734375 2.59570312 C35.85185116 2.72560946 38.42599296 2.86058252 41 3 C41.04254356 4.99954746 41.04080783 7.00041636 41 9 C40 10 40 10 37.5625 10.0625 C36.2940625 10.0315625 36.2940625 10.0315625 35 10 C34.34 10 33.68 10 33 10 C32.67 10.66 32.34 11.32 32 12 C30.68 12 29.36 12 28 12 C28 11.34 28 10.68 28 10 C27.05125 10 26.1025 10 25.125 10 C23.41666667 10 21.70833333 10 20 10 C17.33555458 10.42070191 15.22018531 10.88676184 12.8125 12.125 C12.214375 12.41375 11.61625 12.7025 11 13 C10.34 12.67 9.68 12.34 9 12 C9 11.34 9 10.68 9 10 C8.1028125 10.2784375 8.1028125 10.2784375 7.1875 10.5625 C5 11 5 11 2 10 C-0.14255793 10.38932856 -0.14255793 10.38932856 -2 11 C-1.85957123 9.35369672 -1.71250671 7.70795821 -1.5625 6.0625 C-1.48128906 5.14597656 -1.40007812 4.22945313 -1.31640625 3.28515625 C-1 1 -1 1 0 0 Z M37 5 C38 7 38 7 38 7 Z M28 6 C29 9 29 9 29 9 Z " fill="#FCFCFC" transform="translate(69,66)"/>
<path d="M0 0 C1.134375 0.020625 2.26875 0.04125 3.4375 0.0625 C3.4375 1.0525 3.4375 2.0425 3.4375 3.0625 C5.41736082 2.94902381 7.39641598 2.8214065 9.375 2.6875 C11.02822266 2.58308594 11.02822266 2.58308594 12.71484375 2.4765625 C13.61332031 2.33992188 14.51179688 2.20328125 15.4375 2.0625 C15.7675 1.4025 16.0975 0.7425 16.4375 0.0625 C17.4275 0.0625 18.4175 0.0625 19.4375 0.0625 C19.1075 3.3625 18.7775 6.6625 18.4375 10.0625 C17.1175 9.7325 15.7975 9.4025 14.4375 9.0625 C13.4475 9.3925 12.4575 9.7225 11.4375 10.0625 C11.4375 10.7225 11.4375 11.3825 11.4375 12.0625 C10.4475 12.0625 9.4575 12.0625 8.4375 12.0625 C8.1075 11.4025 7.7775 10.7425 7.4375 10.0625 C3.1475 10.0625 -1.1425 10.0625 -5.5625 10.0625 C-4.57834158 0.08032178 -4.57834158 0.08032178 0 0 Z M1.4375 4.0625 C1.1075 4.7225 0.7775 5.3825 0.4375 6.0625 C1.0975 6.7225 1.7575 7.3825 2.4375 8.0625 C2.1075 6.7425 1.7775 5.4225 1.4375 4.0625 Z M5.4375 5.0625 C6.4375 7.0625 6.4375 7.0625 6.4375 7.0625 Z " fill="#F8FBFA" transform="translate(117.5625,65.9375)"/>
<path d="M0 0 C2 1 4 2 6 3 C10.26446708 3.45079626 10.26446708 3.45079626 13.875 1.5 C14.24625 1.005 14.6175 0.51 15 0 C14.625 2.4375 14.625 2.4375 14 5 C10.88906776 6.55546612 7.73921708 6.01719109 4.3125 5.9375 C1.97231107 5.83764219 1.97231107 5.83764219 0 7 C0 4.69 0 2.38 0 0 Z " fill="#F2F4F3" transform="translate(149,50)"/>
<path d="M0 0 C1 1 1 1 1.1875 4.75 C1.15615249 8.23584286 0.57760458 10.84479083 -1 14 C-1.33 14 -1.66 14 -2 14 C-2.16873478 12.56274129 -2.33490737 11.12518162 -2.5 9.6875 C-2.5928125 8.88699219 -2.685625 8.08648437 -2.78125 7.26171875 C-3 5 -3 5 -3 2 C-3.99 2.495 -3.99 2.495 -5 3 C-5.99 2.34 -6.98 1.68 -8 1 C-5.05549278 0.01849759 -3.06481021 -0.1613058 0 0 Z " fill="#F3F2F1" transform="translate(22,22)"/>
<path d="M0 0 C1.65 1.32 3.3 2.64 5 4 C4.01 4.33 3.02 4.66 2 5 C1.87625 5.5775 1.7525 6.155 1.625 6.75 C0.70302589 10.06910681 -1.51797119 11.70889648 -4 14 C-4.79953138 10.71303767 -5.09658936 9.28976808 -4 6 C-3.01 6 -2.02 6 -1 6 C-0.67 4.02 -0.34 2.04 0 0 Z " fill="#F0F2F1" transform="translate(188,31)"/>
<path d="M0 0 C0.2475 0.515625 0.495 1.03125 0.75 1.5625 C2.39581616 4.77184151 4.1976096 7.87585664 6 11 C5.01 11.495 5.01 11.495 4 12 C1.66118993 9.87380903 0.05961238 8.00223508 -1 5 C-0.625 2.25 -0.625 2.25 0 0 Z " fill="#F4F5F4" transform="translate(29,37)"/>
<path d="M0 0 C2.31 0.33 4.62 0.66 7 1 C7.66 2.98 8.32 4.96 9 7 C7.35 6.67 5.7 6.34 4 6 C3.67 5.01 3.34 4.02 3 3 C2.01 2.67 1.02 2.34 0 2 C0 1.34 0 0.68 0 0 Z " fill="#E8EDEB" transform="translate(80,11)"/>
<path d="M0 0 C0.33 0.66 0.66 1.32 1 2 C2.32 2 3.64 2 5 2 C5 2.66 5 3.32 5 4 C2.125 4.125 2.125 4.125 -1 4 C-1.66 3.34 -2.32 2.68 -3 2 C-2.01 1.34 -1.02 0.68 0 0 Z " fill="#F0F3F2" transform="translate(155,48)"/>
<path d="M0 0 C0.66 0.33 1.32 0.66 2 1 C1.67 2.65 1.34 4.3 1 6 C-0.32 5.34 -1.64 4.68 -3 4 C-2.01 2.68 -1.02 1.36 0 0 Z " fill="#F2F3F3" transform="translate(130,30)"/>
<path d="" fill="#000000" transform="translate(0,0)"/>
<path d="" fill="#000000" transform="translate(0,0)"/>
<path d="" fill="#000000" transform="translate(0,0)"/>
<path d="" fill="#000000" transform="translate(0,0)"/>
<path d="" fill="#000000" transform="translate(0,0)"/>
<path d="" fill="#000000" transform="translate(0,0)"/>
<path d="" fill="#000000" transform="translate(0,0)"/>
<path d="" fill="#000000" transform="translate(0,0)"/>
<path d="" fill="#FF0000" transform="translate(0,0)"/>
<path d="" fill="#000000" transform="translate(0,0)"/>
<path d="" fill="#000000" transform="translate(0,0)"/>
<path d="" fill="#000000" transform="translate(0,0)"/>
<path d="" fill="#000000" transform="translate(0,0)"/>
<path d="" fill="#000000" transform="translate(0,0)"/>
<path d="" fill="#000000" transform="translate(0,0)"/>
<path d="" fill="#000000" transform="translate(0,0)"/>
<path d="" fill="#000000" transform="translate(0,0)"/>
<path d="" fill="#000000" transform="translate(0,0)"/>
<path d="" fill="#000000" transform="translate(0,0)"/>
<path d="" fill="#000000" transform="translate(0,0)"/>
<path d="" fill="#000000" transform="translate(0,0)"/>
<path d="" fill="#000000" transform="translate(0,0)"/>
<path d="" fill="#000000" transform="translate(0,0)"/>
<path d="" fill="#000000" transform="translate(0,0)"/>
<path d="" fill="#000000" transform="translate(0,0)"/>
<path d="" fill="#000000" transform="translate(0,0)"/>
<path d="" fill="#000001" transform="translate(0,0)"/>
<path d="" fill="#000000" transform="translate(0,0)"/>
<path d="" fill="#000000" transform="translate(0,0)"/>
<path d="" fill="#000000" transform="translate(0,0)"/>
<path d="" fill="#000000" transform="translate(0,0)"/>
<path d="" fill="#000000" transform="translate(0,0)"/>
<path d="" fill="#000000" transform="translate(0,0)"/>
<path d="" fill="#000000" transform="translate(0,0)"/>
<path d="" fill="#000000" transform="translate(0,0)"/>
<path d="" fill="#000000" transform="translate(0,0)"/>
<path d="" fill="#000000" transform="translate(0,0)"/>
<path d="" fill="#000000" transform="translate(0,0)"/>
<path d="" fill="#000000" transform="translate(0,0)"/>
<path d="" fill="#000000" transform="translate(0,0)"/>
<path d="" fill="#000000" transform="translate(0,0)"/>
<path d="" fill="#000000" transform="translate(0,0)"/>
<path d="" fill="#000000" transform="translate(0,0)"/>
<path d="" fill="#000000" transform="translate(0,0)"/>
<path d="" fill="#000000" transform="translate(0,0)"/>
<path d="" fill="#000000" transform="translate(0,0)"/>
<path d="" fill="#000000" transform="translate(0,0)"/>
<path d="" fill="#000000" transform="translate(0,0)"/>
<path d="" fill="#000000" transform="translate(0,0)"/>
<path d="" fill="#000000" transform="translate(0,0)"/>
<path d="" fill="#000000" transform="translate(0,0)"/>
<path d="" fill="#000000" transform="translate(0,0)"/>
</svg>
